<?xml version="1.0" encoding="utf-8"?>
<!-- Generator: Adobe Illustrator 25.4.1, SVG Export Plug-In . SVG Version: 6.00 Build 0)  -->
<svg version="1.1" id="Livello_1" xmlns="http://www.w3.org/2000/svg" xmlns:xlink="http://www.w3.org/1999/xlink" x="0px" y="0px"
	 viewBox="0 0 200 200" style="enable-background:new 0 0 200 200;" xml:space="preserve">
<style type="text/css">
	.st0{fill:#FFFFFF;}
	.st1{fill:#231F20;}
	.st2{fill:none;stroke:#231F20;stroke-width:7.4083;stroke-linecap:round;stroke-linejoin:round;stroke-miterlimit:10;}
</style>
<g>
	<path id="XMLID_34_" class="st0" d="M145.31,112.39l-11.11,10.44V33.06c0-7.72-5.74-14.86-14.11-14.86
		c-7.79,0-14.11,6.31-14.11,14.1V19.55c0-8.11-6.02-15.85-15.05-15.85c-8.31,0-15.05,6.74-15.05,15.05v-0.9
		c0-7.64-5.77-14.15-14.11-14.15c-7.79,0-14.1,6.31-14.1,14.11v23.78c0-6.83-5.53-12.36-12.36-12.36c-7.41,0-12.36,6.07-12.36,12.86
		v101.47c0,28.9,23.29,52.73,52.22,52.73c23.2,0,45.31-9.83,60.85-27.05l42.07-45.65c2.83-3.07,2.72-7.81-0.24-10.75h0
		C168.91,103.94,154.51,103.74,145.31,112.39z"/>
	<path class="st1" d="M46.12,93.69c-2.05,0-3.7-1.66-3.7-3.7V41.59c0-2.05,1.66-3.7,3.7-3.7c2.05,0,3.7,1.66,3.7,3.7v48.39
		C49.83,92.03,48.17,93.69,46.12,93.69z"/>
	<path class="st1" d="M74.33,93.69c-2.05,0-3.7-1.66-3.7-3.7V18.75c0-2.05,1.66-3.7,3.7-3.7c2.05,0,3.7,1.66,3.7,3.7v71.23
		C78.04,92.03,76.38,93.69,74.33,93.69z"/>
	<path class="st1" d="M104.42,93.69c-2.05,0-3.7-1.66-3.7-3.7V32.3c0-2.05,1.66-3.7,3.7-3.7c2.05,0,3.7,1.66,3.7,3.7v57.68
		C108.13,92.03,106.47,93.69,104.42,93.69z"/>
	<path id="XMLID_29_" class="st2" d="M70.14,156.74"/>
	<path class="st1" d="M78.37,138.29c-0.86,0-1.72-0.3-2.42-0.9c-1.55-1.34-1.72-3.68-0.38-5.22c7.16-8.29,17.53-13.04,28.48-13.04
		h28.59c2.05,0,3.7,1.66,3.7,3.7c0,2.05-1.66,3.7-3.7,3.7h-28.59c-8.79,0-17.12,3.82-22.87,10.47
		C80.45,137.85,79.41,138.29,78.37,138.29z"/>
	<path class="st1" d="M73.62,200c-30.83,0-55.92-25.32-55.92-56.44V42.09c0-9.29,7.06-16.56,16.07-16.56c3.19,0,6.16,0.93,8.66,2.54
		V17.81C42.42,7.99,50.41,0,60.23,0c4.97,0,9.53,1.9,12.85,5.34c0.56,0.58,1.08,1.2,1.55,1.85C78.06,2.82,83.4,0,89.38,0
		c9.81,0,17.88,7.89,18.68,17.9c2.94-2.14,6.56-3.41,10.47-3.41c9.82,0,17.81,8.33,17.81,18.56v81.21l4.87-4.57
		c10.71-10.07,27.27-9.84,37.7,0.52c4.39,4.36,4.54,11.34,0.35,15.89l-42.07,45.65C119.33,191.54,100.31,200,73.62,200z
		 M33.76,32.94c-5.62,0-8.66,4.72-8.66,9.16v101.47c0,27.03,21.76,49.03,48.51,49.03c24.71,0,41.54-7.48,58.1-25.83l42.1-45.68
		c1.48-1.61,1.43-4.07-0.12-5.61c-7.58-7.53-19.62-7.7-27.41-0.38h0l-11.11,10.44c-1.08,1.01-2.65,1.29-4.01,0.7
		c-1.36-0.59-2.23-1.92-2.23-3.4V33.06c0-5.48-3.89-11.16-10.4-11.16c-5.74,0-10.4,4.67-10.4,10.4c0,2.05-1.66,3.7-3.7,3.7
		c-2.05,0-3.7-1.66-3.7-3.7V19.55c0-5.97-4.24-12.15-11.34-12.15c-6.25,0-11.34,5.09-11.34,11.34c0,2.05-1.66,3.7-3.7,3.7
		c-2.05,0-3.7-1.66-3.7-3.7v-0.9c0-2.82-1.03-5.43-2.89-7.37c-1.93-2.01-4.53-3.07-7.51-3.07c-5.73,0-10.4,4.67-10.4,10.4v23.78
		c0,2.05-1.66,3.7-3.7,3.7c-2.05,0-3.7-1.66-3.7-3.7C42.42,36.82,38.54,32.94,33.76,32.94z M143.74,112.39L143.74,112.39
		L143.74,112.39z"/>
</g>
</svg>
