<?xml version="1.0" encoding="utf-8"?>
<!-- Generator: Adobe Illustrator 25.4.1, SVG Export Plug-In . SVG Version: 6.00 Build 0)  -->
<svg version="1.1" id="Livello_1" xmlns="http://www.w3.org/2000/svg" xmlns:xlink="http://www.w3.org/1999/xlink" x="0px" y="0px"
	 viewBox="0 0 200 200" style="enable-background:new 0 0 200 200;" xml:space="preserve">
<style type="text/css">
	.st0{fill:#FFFFFF;}
	.st1{fill:#231F20;}
	.st2{display:none;fill:#FFFFFF;}
</style>
<g>
	<path id="XMLID_25_" class="st0" d="M179.27,79.61V24.97c0-10.44-8.47-18.91-18.91-18.91c-10.44,0-18.91,8.47-18.91,18.91v1.7
		c0-12.31-9.98-22.3-22.3-22.3c-12.31,0-22.3,9.98-22.3,22.3v-0.24c0-12.18-9.87-22.06-22.06-22.06c-12.18,0-22.06,9.87-22.06,22.06
		v26.77c0-11.44-9.28-20.72-20.72-20.72c-11.44,0-20.72,9.28-20.72,20.72v66.57c0,41.9,33.97,75.87,75.87,75.87h10.49
		c50.27,0,91.03-40.76,91.03-91.03C188.69,95.03,185.13,86.28,179.27,79.61z"/>
	<path class="st1" d="M32.03,105.39c-13.83,0-25.08-11.25-25.08-25.08V53.19c0-13.83,11.25-25.08,25.08-25.08
		c13.83,0,25.08,11.25,25.08,25.08v27.11C57.11,94.14,45.86,105.39,32.03,105.39z M32.03,36.84c-9.02,0-16.36,7.34-16.36,16.36
		v27.11c0,9.02,7.34,16.36,16.36,16.36c9.02,0,16.36-7.34,16.36-16.36V53.19C48.38,44.17,41.05,36.84,32.03,36.84z"/>
	<path class="st2" d="M179.28,79.62c-6.94-7.89-17.11-12.87-28.44-12.87H60.16c-4.09,0-7.41,3.32-7.41,7.41v4.64
		c0,18.15,14.71,32.85,32.85,32.85h102.82c0.18-2.33,0.27-4.68,0.27-7.05C188.69,95.43,185.38,86.55,179.28,79.62z"/>
	<path class="st1" d="M130.59,116.02H85.6c-20.52,0-37.22-16.7-37.22-37.22v-4.64c0-6.49,5.28-11.78,11.78-11.78h90.68
		c23.28,0,42.22,18.94,42.22,42.22c0,2.41-1.95,4.36-4.36,4.36c-2.41,0-4.36-1.95-4.36-4.36c0-18.47-15.02-33.49-33.49-33.49H60.16
		c-1.68,0-3.05,1.37-3.05,3.05v4.64c0,15.71,12.78,28.49,28.49,28.49h44.99c2.41,0,4.36,1.95,4.36,4.36
		C134.96,114.06,133,116.02,130.59,116.02z"/>
	<path class="st1" d="M96.86,71.11c-2.41,0-4.36-1.95-4.36-4.36V26.66c0-2.41,1.95-4.36,4.36-4.36s4.36,1.95,4.36,4.36v40.09
		C101.22,69.16,99.27,71.11,96.86,71.11z"/>
	<path class="st1" d="M97.66,200H87.18c-44.24,0-80.24-35.99-80.24-80.24V53.19c0-13.83,11.25-25.08,25.08-25.08
		c6.24,0,11.96,2.29,16.36,6.08v-7.77C48.38,11.85,60.23,0,74.8,0c9.24,0,17.39,4.77,22.11,11.97C101.69,4.76,109.88,0,119.16,0
		c9.17,0,17.28,4.65,22.08,11.73c4.21-6.06,11.21-10.03,19.13-10.03c12.83,0,23.27,10.44,23.27,23.27v53.05
		c6.09,7.51,9.43,16.88,9.43,26.59C193.06,157.21,150.26,200,97.66,200z M32.03,36.84c-9.02,0-16.36,7.34-16.36,16.36v66.57
		c0,39.43,32.08,71.51,71.51,71.51h10.49c47.79,0,86.67-38.88,86.67-86.67c0-8.15-2.96-16-8.34-22.11c-0.7-0.8-1.09-1.82-1.09-2.88
		V24.97c0-8.02-6.52-14.54-14.54-14.54c-8.02,0-14.54,6.52-14.54,14.54v1.7c0,2.41-1.95,4.36-4.36,4.36c-2.41,0-4.36-1.95-4.36-4.36
		c0-9.89-8.04-17.93-17.93-17.93s-17.93,8.05-17.93,17.93c0,2.41-1.95,4.36-4.36,4.36s-4.36-1.95-4.36-4.36v-0.24
		c0-9.76-7.94-17.69-17.69-17.69s-17.69,7.94-17.69,17.69v26.77c0,2.41-1.95,4.36-4.36,4.36s-4.36-1.95-4.36-4.36
		C48.38,44.17,41.05,36.84,32.03,36.84z"/>
	<path class="st1" d="M141.45,71.11c-2.41,0-4.36-1.95-4.36-4.36V26.66c0-2.41,1.95-4.36,4.36-4.36c2.41,0,4.36,1.95,4.36,4.36
		v40.09C145.82,69.16,143.86,71.11,141.45,71.11z"/>
	<path class="st1" d="M93.57,163.32c-2.41,0-4.36-1.95-4.36-4.36v-10.8c0-22.54,18.33-40.87,40.87-40.87c2.41,0,4.36,1.95,4.36,4.36
		c0,2.41-1.95,4.36-4.36,4.36c-17.72,0-32.14,14.42-32.14,32.14v10.8C97.94,161.37,95.98,163.32,93.57,163.32z"/>
</g>
</svg>
