<?xml version="1.0" encoding="utf-8"?>
<!-- Generator: Adobe Illustrator 25.4.1, SVG Export Plug-In . SVG Version: 6.00 Build 0)  -->
<svg version="1.1" id="Livello_1" xmlns="http://www.w3.org/2000/svg" xmlns:xlink="http://www.w3.org/1999/xlink" x="0px" y="0px"
	 viewBox="0 0 200 200" style="enable-background:new 0 0 200 200;" xml:space="preserve">
<style type="text/css">
	.st0{fill:#FFFFFF;}
	.st1{fill:#231F20;}
	.st2{fill:none;stroke:#231F20;stroke-width:6.5116;stroke-linecap:round;stroke-linejoin:round;stroke-miterlimit:10;}
</style>
<g>
	<path class="st0" d="M149.12,3.39c-7.53-1.06-14.48,4.19-15.54,11.71l-10.96,75.24L111.7,15.32c-1.06-7.53-8.01-12.77-15.54-11.71
		c-7.52,1.06-12.77,8.01-11.71,15.54l7.99,56.87c-2.56-2.2-5.89-3.53-9.53-3.53c-8.08,0-14.63,6.55-14.63,14.63v13.21
		c0-8.08-6.55-14.63-14.63-14.63c-8.08,0-14.63,6.55-14.63,14.63V140c0,29.22,22.05,54.74,51.21,56.62
		c30.04,1.94,58.51-20.73,58.51-56.29c0-46.96,0-31.26,12.08-121.4C161.89,11.41,156.65,4.45,149.12,3.39z"/>
	<path class="st1" d="M87.19,175.24c-1.8,0-3.26-1.46-3.26-3.26v-7.22c0-15.26,12.42-27.68,27.68-27.68c1.8,0,3.26,1.46,3.26,3.26
		s-1.46,3.26-3.26,3.26c-11.67,0-21.17,9.49-21.17,21.17v7.22C90.44,173.78,88.98,175.24,87.19,175.24z"/>
	<path class="st1" d="M93.79,200c-1.25,0-2.51-0.04-3.76-0.12c-30.43-1.97-54.26-28.27-54.26-59.87v-39.67
		c0-9.86,8.02-17.89,17.88-17.89c4.32,0,8.29,1.54,11.38,4.1c0.31-9.6,8.21-17.31,17.88-17.31c1.85,0,3.67,0.29,5.4,0.84
		l-7.09-50.47c-0.63-4.5,0.53-8.98,3.26-12.61c2.74-3.63,6.72-5.98,11.22-6.61c4.5-0.63,8.98,0.52,12.61,3.26
		c3.63,2.74,5.98,6.72,6.61,11.22l7.7,52.88l7.74-53.12c0.63-4.48,2.98-8.47,6.61-11.2c3.63-2.73,8.11-3.89,12.61-3.26l0,0
		c4.5,0.63,8.49,2.98,11.22,6.61c2.73,3.63,3.89,8.11,3.26,12.61c-3.02,22.57-5.32,38.69-6.99,50.47
		c-5.05,35.52-5.05,35.52-5.05,70.48c0,17.26-6.53,32.89-18.39,44C122.89,194.4,108.55,200,93.79,200z M53.66,88.96
		c-6.27,0-11.37,5.1-11.37,11.37v39.67c0,28.18,21.16,51.63,48.17,53.38c14.27,0.92,28.38-4.1,38.72-13.79
		c10.53-9.87,16.33-23.81,16.33-39.25c0-35.43,0-35.43,5.12-71.4c1.67-11.76,3.96-27.87,6.99-50.44c0.39-2.8-0.32-5.56-2.01-7.8
		s-4.15-3.69-6.93-4.08c-2.78-0.39-5.54,0.32-7.78,2.01c-2.24,1.69-3.69,4.15-4.08,6.93l-10.97,75.25c-0.23,1.6-1.6,2.79-3.22,2.79
		h0c-1.62,0-2.99-1.19-3.22-2.79l-10.92-75.02c-0.39-2.79-1.84-5.25-4.08-6.94c-2.24-1.69-5-2.4-7.78-2.01
		c-2.78,0.39-5.24,1.84-6.93,4.08c-1.69,2.24-2.4,5-2.01,7.78l7.99,56.87c0.19,1.34-0.47,2.66-1.66,3.31
		c-1.19,0.65-2.66,0.5-3.68-0.39c-2.06-1.77-4.69-2.75-7.4-2.75c-6.27,0-11.37,5.1-11.37,11.37v13.21c0,1.8-1.46,3.26-3.26,3.26
		s-3.26-1.46-3.26-3.26C65.03,94.06,59.93,88.96,53.66,88.96z"/>
	<path id="XMLID_11_" class="st2" d="M92.42,75.86"/>
	<path id="XMLID_10_" class="st0" d="M53.66,85.7L53.66,85.7c-8.08,0-14.63,6.55-14.63,14.63v17.87c0,8.08,6.55,14.63,14.63,14.63
		l0,0c8.08,0,14.63-6.55,14.63-14.63v-17.87C68.29,92.25,61.74,85.7,53.66,85.7z"/>
	<path id="XMLID_9_" class="st0" d="M82.92,72.49L82.92,72.49c-8.08,0-14.63,6.55-14.63,14.63v31.08c0,8.08,6.55,14.63,14.63,14.63
		l0,0c8.08,0,14.63-6.55,14.63-14.63V87.12C97.55,79.04,91,72.49,82.92,72.49z"/>
	<path class="st1" d="M53.66,136.08c-9.86,0-17.88-8.02-17.88-17.88v-17.87c0-9.86,8.02-17.89,17.88-17.89s17.88,8.02,17.88,17.89
		v17.87C71.54,128.06,63.52,136.08,53.66,136.08z M53.66,88.96c-6.27,0-11.37,5.1-11.37,11.37v17.87c0,6.27,5.1,11.37,11.37,11.37
		s11.37-5.1,11.37-11.37v-17.87C65.03,94.06,59.93,88.96,53.66,88.96z"/>
	<path class="st1" d="M82.92,136.08c-9.86,0-17.88-8.02-17.88-17.88V87.12c0-9.86,8.02-17.88,17.88-17.88s17.88,8.02,17.88,17.88
		v31.08C100.8,128.06,92.78,136.08,82.92,136.08z M82.92,75.75c-6.27,0-11.37,5.1-11.37,11.37v31.08c0,6.27,5.1,11.37,11.37,11.37
		s11.37-5.1,11.37-11.37V87.12C94.29,80.85,89.19,75.75,82.92,75.75z"/>
	<path id="XMLID_4_" class="st0" d="M148.76,140.34L148.76,140.34c0-15.77-12.78-28.55-28.55-28.55H75.75
		c-4.18,0-7.57,3.39-7.57,7.57l0,0c0,11.59,9.39,20.98,20.98,20.98h22.44"/>
	<path class="st1" d="M148.76,143.59c-1.8,0-3.26-1.46-3.26-3.26c0-13.95-11.35-25.29-25.29-25.29H75.75
		c-2.38,0-4.31,1.93-4.31,4.31c0,9.77,7.95,17.73,17.73,17.73h22.44c1.8,0,3.26,1.46,3.26,3.26s-1.46,3.26-3.26,3.26H89.17
		c-13.37,0-24.24-10.87-24.24-24.24c0-5.97,4.85-10.82,10.82-10.82h44.45c17.54,0,31.81,14.27,31.81,31.81
		C152.01,142.13,150.56,143.59,148.76,143.59z"/>
</g>
</svg>
